<?xml version="1.0" encoding="UTF-8" standalone="no"?>
<svg
   xmlns:dc="http://purl.org/dc/elements/1.1/"
   xmlns:cc="http://creativecommons.org/ns#"
   xmlns:rdf="http://www.w3.org/1999/02/22-rdf-syntax-ns#"
   xmlns:svg="http://www.w3.org/2000/svg"
   xmlns="http://www.w3.org/2000/svg"
   xmlns:sodipodi="http://sodipodi.sourceforge.net/DTD/sodipodi-0.dtd"
   xmlns:inkscape="http://www.inkscape.org/namespaces/inkscape"
   width="660px"
   height="292px"
   version="1.1"
   id="svg2"
   inkscape:version="0.91 r13725"
   sodipodi:docname="inception.svg">
  <metadata
     id="metadata34">
    <rdf:RDF>
      <cc:Work
         rdf:about="">
        <dc:format>image/svg+xml</dc:format>
        <dc:type
           rdf:resource="http://purl.org/dc/dcmitype/StillImage" />
      </cc:Work>
    </rdf:RDF>
  </metadata>
  <sodipodi:namedview
     pagecolor="#ffffff"
     bordercolor="#666666"
     borderopacity="1"
     objecttolerance="10"
     gridtolerance="10"
     guidetolerance="10"
     inkscape:pageopacity="0"
     inkscape:pageshadow="2"
     inkscape:window-width="1280"
     inkscape:window-height="800"
     id="namedview32"
     showgrid="false"
     inkscape:zoom="1.2106061"
     inkscape:cx="251.93993"
     inkscape:cy="146.08956"
     inkscape:window-x="0"
     inkscape:window-y="0"
     inkscape:window-maximized="0"
     inkscape:current-layer="svg2" />
  <defs
     id="defs4" />
  <g
     inkscape:groupmode="layer"
     id="layer1"
     inkscape:label="image"
     style="display:inline"
     class="fragment">
    <path
       style="fill:#ffe6cc;stroke:#d79b00;stroke-miterlimit:10"
       inkscape:connector-curvature="0"
       id="path8"
       pointer-events="none"
       stroke-miterlimit="10"
       d="m 58.73,31.35 c 7.88,0 14.72,4.36 18.49,10.77 l 22.25,0.03 0,-12.11 c 0,-4.51 -3.61,-8.17 -8.04,-8.17 l -82.92,0 c -4.44,0 -8.01,3.66 -8.01,8.17 l 0.02,12.02 39.71,0.03 c 3.8,-6.4 10.61,-10.74 18.5,-10.74 z m -37.44,-13.31 -7.38,0 -0.85,2.69 8.84,0 -0.61,-2.69 z m 66.51,-1.45 -9.83,0 -1.73,4.17 13.16,0 -1.6,-4.17 z m -33.71,2.73 -8.44,0 0,-4.16 8.44,0 0,4.16 z m 7.76,-5.82 -23.87,0 -4.92,7.31 33.28,0 -4.49,-7.31 z m 16.52,30.8 c 1.23,2.76 1.96,5.78 1.96,9.01 0,12.12 -9.68,21.96 -21.6,21.96 -11.94,0 -21.61,-9.84 -21.61,-21.96 0,-3.22 0.72,-6.25 1.95,-9.02 l -38.57,0 0,33.07 c 0,4.49 3.57,8.14 8.02,8.14 l 82.92,0 c 4.43,0 8.04,-3.66 8.04,-8.14 l 0.02,-33.06 -21.13,0 z m -7.87,1.79 c -0.34,-0.61 -0.76,-1.18 -1.22,-1.73 -2.53,-3.08 -6.3,-5.11 -10.55,-5.11 -4.27,0 -8.04,2.02 -10.56,5.08 -0.46,0.56 -0.89,1.14 -1.26,1.76 -1.26,2.12 -2.03,4.56 -2.03,7.21 0,7.75 6.19,14.04 13.84,14.04 7.61,0 13.82,-6.3 13.82,-14.04 0,-2.64 -0.75,-5.09 -2.04,-7.21 z" />
  </g>
  <g
     inkscape:groupmode="layer"
     id="layer2"
     inkscape:label="science"
     style="display:inline"
     class="fragment">
    <path
       style="fill:#ffe6cc;stroke:#d79b00;stroke-miterlimit:10"
       inkscape:connector-curvature="0"
       id="path10"
       pointer-events="none"
       stroke-miterlimit="10"
       d="m 290.52,89.41 c 7.18,-6.69 11.72,-16.12 11.72,-26.63 0,-12.95 -6.87,-24.63 -17.55,-31.2 l 11.97,-20.51 -1.88,-1.08 2.96,-5.08 -7.75,-4.41 -2.96,5.07 -1.99,-1.12 -29.42,50.45 2.58,1.47 -3.65,6.25 6.46,3.69 3.65,-6.25 2.57,1.47 12.37,-21.23 c 7.6,4.79 12.46,13.18 12.46,22.47 0,14.7 -12.07,26.63 -26.91,26.63 -9.93,0 -21.68,0 -21.68,0 l 0,10.1 61.03,0 0,-10.09 c -0.01,0 -9.04,0 -13.98,0 z" />
    <path
       style="fill:#ffffff;stroke:#ffb570;stroke-width:2;stroke-miterlimit:10"
       inkscape:connector-curvature="0"
       id="path26"
       pointer-events="none"
       stroke-miterlimit="10"
       d="m 110.5,49.5 0,-4.5 q 0,-4.5 10,-4.5 l 60,0 q 10,0 10,-10 l 0,-5.5 q 0,-5.5 5.55,2.82 l 8.9,13.36 q 5.55,8.32 0,16.64 l -8.9,13.36 Q 190.5,79.5 190.5,69.5 l 0,-5.5 q 0,-5.5 -10,-5.5 l -60,0 q -10,0 -10,-4.5 z" />
    <path
       style="fill:#ffe6cc;stroke:#d79b00;stroke-miterlimit:10"
       inkscape:connector-curvature="0"
       id="path14"
       pointer-events="none"
       stroke-miterlimit="10"
       d="m 419.5,49.5 c 0,-6.78 -10.53,-11.78 -24.54,-14.47 1.14,-3.31 2.09,-6.52 2.74,-9.5 2.17,-9.98 1.13,-16.78 -2.95,-19.15 C 393.74,5.8 392.57,5.5 391.29,5.5 385.73,5.5 377.97,11.15 370,20.44 362.03,11.14 354.27,5.5 348.71,5.5 c -1.28,0 -2.45,0.3 -3.46,0.89 -5.83,3.38 -4.86,15.07 -0.17,28.65 -14.04,2.67 -24.58,7.68 -24.58,14.46 0,6.77 10.53,11.77 24.54,14.46 -1.15,3.31 -2.09,6.52 -2.74,9.5 -2.16,9.99 -1.13,16.79 2.95,19.15 1.01,0.59 2.18,0.89 3.46,0.89 5.57,0 13.33,-5.65 21.29,-14.94 7.97,9.29 15.73,14.94 21.29,14.94 1.29,0 2.45,-0.3 3.46,-0.89 4.08,-2.36 5.12,-9.16 2.95,-19.15 -0.65,-2.98 -1.59,-6.19 -2.74,-9.5 14.01,-2.68 24.54,-7.69 24.54,-14.46 z M 391.29,8.07 c 0.83,0 1.57,0.19 2.18,0.54 2.99,1.73 3.62,7.69 1.73,16.37 -0.66,3.01 -1.61,6.23 -2.79,9.59 -4.12,-0.69 -8.5,-1.19 -12.96,-1.49 -2.55,-3.87 -5.16,-7.42 -7.76,-10.62 7.51,-8.82 14.79,-14.39 19.6,-14.39 z m -9.1,48.51 c -1.36,2.37 -2.77,4.66 -4.2,6.87 -2.57,0.13 -5.23,0.21 -7.99,0.21 -2.76,0 -5.42,-0.07 -7.99,-0.21 -1.44,-2.21 -2.84,-4.5 -4.2,-6.87 -1.37,-2.4 -2.64,-4.75 -3.81,-7.06 1.19,-2.36 2.46,-4.73 3.81,-7.1 1.36,-2.37 2.77,-4.66 4.2,-6.87 2.57,-0.13 5.23,-0.2 7.99,-0.2 2.76,0 5.42,0.07 7.99,0.2 1.44,2.21 2.84,4.5 4.2,6.87 1.35,2.36 2.61,4.73 3.8,7.08 -1.19,2.36 -2.45,4.72 -3.8,7.08 z m 5.2,-4.22 c 1.57,3.29 2.97,6.54 4.15,9.68 -3.21,0.52 -6.69,0.93 -10.38,1.2 1.09,-1.75 2.16,-3.54 3.23,-5.38 1.06,-1.82 2.05,-3.66 3,-5.5 z m -11.16,13.73 c -2.05,3 -4.14,5.82 -6.23,8.4 -2.09,-2.58 -4.17,-5.41 -6.23,-8.4 2.08,0.08 4.15,0.13 6.23,0.13 2.08,0 4.15,-0.05 6.23,-0.13 z m -17.4,-2.84 c -3.69,-0.28 -7.17,-0.68 -10.38,-1.2 1.18,-3.14 2.58,-6.38 4.15,-9.68 0.96,1.86 1.96,3.69 3,5.5 1.06,1.83 2.13,3.63 3.23,5.38 z m -6.24,-16.59 c -1.62,-3.38 -3.02,-6.63 -4.18,-9.7 3.22,-0.52 6.71,-0.93 10.42,-1.21 -1.1,1.75 -2.17,3.54 -3.23,5.39 -1.06,1.83 -2.05,3.68 -3.01,5.52 z m 11.18,-13.75 c 2.05,-3 4.13,-5.82 6.22,-8.41 2.09,2.58 4.18,5.41 6.23,8.41 -2.07,-0.08 -4.15,-0.13 -6.23,-0.13 -2.07,0 -4.14,0.05 -6.22,0.13 z m 20.63,8.23 c -1.06,-1.85 -2.13,-3.64 -3.23,-5.39 3.69,0.28 7.16,0.69 10.38,1.2 -1.18,3.14 -2.58,6.39 -4.15,9.68 -0.96,-1.83 -1.95,-3.67 -3,-5.49 z M 346.53,8.61 c 0.61,-0.36 1.35,-0.54 2.18,-0.54 4.81,0 12.09,5.57 19.6,14.39 -2.59,3.2 -5.21,6.75 -7.76,10.62 -4.48,0.3 -8.87,0.8 -13.01,1.5 -4.85,-13.73 -4.99,-23.66 -1.01,-25.97 z M 323.06,49.5 c 0,-4.63 8.62,-9.46 22.86,-12.11 1.47,3.95 3.24,8.03 5.22,12.09 -2.03,4.12 -3.8,8.19 -5.27,12.11 -14.21,-2.64 -22.81,-7.47 -22.81,-12.09 z m 25.65,41.43 c -0.84,0 -1.55,-0.18 -2.18,-0.54 -2.99,-1.73 -3.62,-7.69 -1.73,-16.37 0.66,-3.01 1.61,-6.24 2.79,-9.59 4.12,0.7 8.5,1.19 12.96,1.49 2.55,3.87 5.16,7.42 7.76,10.62 -7.51,8.82 -14.79,14.39 -19.6,14.39 z M 395.2,74.02 c 1.89,8.68 1.26,14.64 -1.73,16.37 -0.62,0.35 -1.35,0.54 -2.18,0.54 -4.81,0 -12.09,-5.57 -19.59,-14.39 2.6,-3.2 5.21,-6.76 7.76,-10.62 4.46,-0.3 8.84,-0.8 12.96,-1.49 1.17,3.35 2.13,6.58 2.78,9.59 z m -1.08,-12.43 c -1.46,-3.91 -3.23,-7.97 -5.25,-12.09 2.03,-4.13 3.79,-8.19 5.26,-12.1 14.22,2.65 22.82,7.48 22.82,12.1 -0.01,4.62 -8.61,9.45 -22.83,12.09 z" />
    <path
       style="fill:#ffe6cc;stroke:#d79b00;stroke-miterlimit:10"
       inkscape:connector-curvature="0"
       id="path12"
       pointer-events="none"
       stroke-miterlimit="10"
       d="m 242.89,63.17 -2.39,4.15 24.87,14.27 2.38,-4.14 z" />
    <ellipse
       style="fill:#ffe6cc;stroke:#d79b00"
       id="ellipse16"
       pointer-events="none"
       ry="5.417223"
       rx="5.433414"
       cy="49.5"
       cx="370.5" />
  </g>
  <g
     inkscape:groupmode="layer"
     id="layer3"
     inkscape:label="classifications"
     style="display:inline"
     class="fragment">
    <path
       style="fill:#ffe6cc;stroke:#d79b00;stroke-miterlimit:10"
       inkscape:connector-curvature="0"
       id="path18"
       pointer-events="none"
       stroke-miterlimit="10"
       d="m 595.35,16.42 5.92,0 c 0.02,-2.36 -0.54,-7.56 5.69,-7.56 4.72,0.01 4.48,4.02 4.48,4.02 0,0 0.19,2.74 -3.8,4.71 -3.62,1.81 -3.96,4.32 -3.96,5.43 l 0,6.97 5.98,0 0,-4.51 c 0.02,-1.69 1.22,-2.61 3.9,-4.55 2.64,-1.92 4.4,-3.77 4.38,-7.95 0.02,-4.14 -4.07,-10.43 -11.57,-10.42 0,0 -5.13,-0.06 -8.09,3.68 -2.93,3.72 -3.08,5.89 -2.93,10.18 l 0,0 z m 14.25,15.75 -5.93,0 0,6.3 5.93,0 0,-6.3 z m 38.58,39.11 c 8.71,-0.01 11.31,-7.21 11.32,-11.35 -0.01,-5.15 -4.41,-10.61 -10.4,-10.61 l -13.88,0 0,-12.06 -62.03,13.23 0,3.44 62.03,12.45 0,-11.48 c 0,0 13.32,-0.02 13.39,0 3.11,-0.02 5.38,3.24 5.4,5.23 -0.01,2.57 -1.52,5.44 -5.4,5.43 0,0 -4.37,-0.43 -4.38,2.71 0.01,3.18 3.33,3 3.95,3.01 l 0,0 z m -76.67,-20.4 0,2.66 -8.96,0 c -1.98,-0.02 -2.05,-2.65 0,-2.66 0.06,-0.02 8.96,0 8.96,0 l 0,0 z m 57.8,32.22 c 0,0 2.6,-0.01 3.36,0 0.74,-0.01 2.29,0.7 2.31,2.13 l 0,12.27 -7.37,-2.13 c 0,0 -40.1,0 -42.24,0 -2.11,0 -2.95,-1.77 -2.93,-2.71 -0.02,-0.97 0.72,-2.76 2.93,-2.77 l 21.29,0 0,-1.27 c 0,0 -19.15,0 -21.29,0 -2.11,0 -2.95,-1.79 -2.93,-2.71 -0.02,-0.97 0.72,-2.71 2.93,-2.72 l 21.29,0 0,-1.16 c 0,0 -19.15,0.01 -21.29,0 -2.11,0.01 -2.95,-1.73 -2.93,-2.66 -0.02,-0.96 0.72,-2.86 2.93,-2.86 l 21.29,0 0,-1.17 -21.29,0 c -2.12,0.02 -2.95,-1.89 -2.93,-2.87 -0.02,-0.93 0.71,-2.76 2.93,-2.76 l 0,0 17.78,0 -5.97,-1.64 c -1.51,-0.54 -2.29,-1.91 -1.87,-3.49 0.43,-1.55 1.72,-2.2 3.89,-1.79 l 35.78,6.97 0,6.97 c -0.02,1.68 -1.14,2.77 -2.36,2.77 l -3.31,0 c -2.12,0.02 -2.12,3.59 0,3.6 l 0,0 z" />
    <path
       style="fill:#ffffff;stroke:#ffb570;stroke-width:2;stroke-miterlimit:10"
       inkscape:connector-curvature="0"
       id="path28"
       pointer-events="none"
       stroke-miterlimit="10"
       d="m 440.5,49.5 0,-4.5 q 0,-4.5 10,-4.5 l 60,0 q 10,0 10,-10 l 0,-5.5 q 0,-5.5 5.55,2.82 l 8.9,13.36 q 5.55,8.32 0,16.64 l -8.9,13.36 Q 520.5,79.5 520.5,69.5 l 0,-5.5 q 0,-5.5 -10,-5.5 l -60,0 q -10,0 -10,-4.5 z" />
  </g>
  <g
     inkscape:groupmode="layer"
     id="layer4"
     inkscape:label="me"
     style="display:inline"
     class="fragment">
    <path
       style="fill:#ffe6cc;stroke:#d79b00;stroke-miterlimit:10"
       inkscape:connector-curvature="0"
       id="path20"
       pointer-events="none"
       stroke-miterlimit="10"
       d="m 150.14,251.38 c 1.12,-3.32 2.15,-5.1 2.96,-7.9 0.16,-0.55 4.54,-12.9 23.73,-24.23 3.19,-1.89 15.47,-5.47 18.23,-6.52 0.76,-0.39 1.23,-0.92 1.44,-1.09 1.89,-1.6 4.67,-5.81 7.25,-7.33 3.63,-2.12 6.17,-2.35 8.86,-2.54 2.28,-0.16 6.2,-0.27 10.03,1.24 3.83,1.49 4.92,4.33 5.02,5.27 l 0.23,1.62 c -0.63,0.57 -1.04,1.57 -1.04,2.49 0,0.88 0.53,1.79 0.53,3 0,1.53 -0.59,4.13 -3.19,6.34 -2.98,2.51 -6.89,3.87 -10.28,5.68 -0.05,0.03 -0.12,0.06 -0.19,0.12 -3.51,3 -1.05,6.66 -1.05,6.66 l 19.53,-8.47 c 6.34,-3.25 11.34,-1.6 14.59,3.3 0.23,0.35 0.3,0.46 0.56,0.9 0.15,0.26 0.11,0.62 -0.08,0.77 -0.24,0.2 -0.6,0.05 -0.74,-0.12 -2.37,-3.04 -7.3,-3.45 -9.97,-1.57 -0.14,0.09 -0.27,0.2 -0.41,0.3 -0.47,1.78 -0.11,1.33 -1.08,5.06 -0.59,2.23 -2.54,3.89 -2.54,3.89 0,0 -15.25,14.6 -16.8,16.05 -2.24,2.09 -7.05,3.07 -11.08,1.58 -1.6,-0.59 -5.17,-2.34 -8.63,-3.54 -0.92,-0.32 -1.39,-0.12 -1.98,0.51 -0.87,0.97 -1.5,1.61 -3.43,3.6 -0.44,0.47 -0.55,1.17 0,1.77 l 9.52,10.98 0.06,0.06 c 3.02,3.22 2.84,6.4 1.93,9.48 -0.35,1.24 -1.25,2.74 -2.17,3.55 -0.22,0.21 -0.42,0.15 -0.6,0.06 -0.2,-0.16 -0.16,-0.51 -0.1,-0.69 1.33,-4 0.39,-7.25 -2.97,-8.87 -1.56,0.91 -3.69,2.15 -4.37,2.55 -1.75,1.04 -4.25,0.54 -5.3,0.26 -3.21,-0.86 -17.44,-4.63 -17.44,-4.63 -10.98,-3.18 -12.77,-9.96 -15.6,-13.43 -0.04,-0.05 -0.07,-0.09 -0.1,-0.14 -1.52,0.3 -2.3,0.37 -3.25,-0.43 -1.72,-1.44 -0.7,-3.93 -0.08,-5.59 z m 65.69,-36.58 c -1.94,1.16 -4.88,0.96 -4.88,0.96 0,0 0.72,2.12 3.34,3.39 1.35,0.65 3.03,1.13 5.67,1.06 1.75,-0.05 3.3,-0.99 4.05,-2.15 0.92,-1.41 1.07,-3.09 1.07,-3.09 0,0 -0.87,-0.1 -1.98,-0.63 -1.12,-0.53 -1.46,-2.69 -1.41,-3.73 0.97,-0.1 2.33,-0.09 3.74,0.13 0,0 -0.15,-2.24 -2.04,-2.74 -1.64,-0.43 -1.63,0.5 -3.51,0.49 -0.1,0 -0.3,0 -0.42,0 -0.42,0 -0.94,-0.14 -1.24,-0.24 -1.26,-0.42 -1.85,-0.72 -3.39,-0.66 -1.89,0.08 -4.08,0.43 -4.86,3.16 2.25,-0.34 4.34,-0.49 7.47,-0.2 0.01,1.31 0.32,3.1 -1.61,4.25 z" />
    <path
       style="fill:#ffe6cc;stroke:#d79b00;stroke-miterlimit:10"
       inkscape:connector-curvature="0"
       id="path22"
       pointer-events="none"
       stroke-miterlimit="10"
       d="m 222.07,214.98 c 0.25,0.1 0.42,0.49 0.4,0.76 -0.1,1.14 -0.44,2.26 -1.69,2.38 -1.41,0.14 -1.96,-1.07 -1.89,-2.39 0.01,-0.07 0.03,-0.37 0.17,-0.47 1.35,-1.06 2.54,-0.46 3.01,-0.28 z" />
  </g>
  <g
     inkscape:groupmode="layer"
     id="layer5"
     inkscape:label="drinkypoo"
     style="display:inline"
     class="fragment">
    <path
       style="fill:#ffe6cc;stroke:#d79b00;stroke-miterlimit:10"
       inkscape:connector-curvature="0"
       id="path24"
       pointer-events="none"
       stroke-miterlimit="10"
       d="m 473.5,279.59 -23.61,0 0,-33.6 42.61,-52.49 -98,0 43.4,52.23 0,33.86 -23.16,0 c -8.01,0.02 -8.01,11.91 0,11.91 l 58.76,0 c 7.95,0 7.89,-11.89 0,-11.91 z m -29.77,-56.64 c -0.01,-4.18 3.39,-7.57 7.59,-7.57 4.2,0 7.61,3.4 7.59,7.57 0.02,4.21 -3.39,7.6 -7.59,7.57 -4.2,0.03 -7.6,-3.36 -7.59,-7.57 z" />
    <path
       style="fill:#ffffff;stroke:#ffb570;stroke-width:2;stroke-miterlimit:10"
       inkscape:connector-curvature="0"
       id="path30"
       pointer-events="none"
       stroke-miterlimit="10"
       d="m 279.5,242.5 0,-4.5 q 0,-4.5 10,-4.5 l 60,0 q 10,0 10,-10 l 0,-5.5 q 0,-5.5 5.55,2.82 l 8.9,13.36 q 5.55,8.32 0,16.64 l -8.9,13.36 q -5.55,8.32 -5.55,-1.68 l 0,-5.5 q 0,-5.5 -10,-5.5 l -60,0 q -10,0 -10,-4.5 z" />
  </g>
</svg>
